<svg width="484" height="186" viewBox="0 0 484 186" fill="none" xmlns="http://www.w3.org/2000/svg">
<g clip-path="url(#clip0_61_8723)">
<path d="M176.845 101.55V18.5999H204.007V100.509C204.007 130.762 217.588 143.78 241.157 143.78C264.725 143.78 278.148 130.762 278.148 100.509V18.5999H304.887V101.55C304.887 144.405 280.896 167.681 240.998 167.681C201.101 167.681 176.898 144.353 176.898 101.55H176.845Z" fill="black"/>
<path d="M460.047 165.598L459.836 68.1721L411.8 148.831H399.699L351.664 69.4739V165.65H325.77V18.5999H348.123L406.199 116.026L463.218 18.5999H485.571L485.782 165.598H460.1H460.047Z" fill="black"/>
<path d="M146.882 24.028C127.013 4.08451 103.55 -5.0801 75.5952 2.83479C47.6406 10.7497 30.1492 33.1405 28.6167 60.7385C26.2387 103.385 64.3394 135.774 106.72 119.111C149.101 102.448 137.581 47.1478 92.9281 46.9916C48.2748 46.8354 -19.2073 107.863 5.15388 156.082C31.893 209.039 120.988 181.076 155.654 153.738C171.56 141.189 148.996 119.215 133.248 131.66C112.269 148.219 76.2822 159.102 49.7544 152.02C3.99131 139.835 61.3273 83.2334 86.4811 78.7032C99.6922 76.3079 107.038 83.1293 95.1476 90.211C87.2209 94.9496 72.0018 91.6691 66.0832 85.5246C57.5753 76.7245 58.5265 57.9787 64.128 47.9289C78.2374 22.57 108.253 29.86 124.476 46.1584C138.797 60.5302 161.203 38.4518 146.882 24.08V24.028Z" fill="#7284FF"/>
<mask id="mask0_61_8723" style="mask-type:luminance" maskUnits="userSpaceOnUse" x="0" y="0" width="162" height="187">
<path d="M146.882 24.028C127.013 4.08451 103.55 -5.0801 75.5952 2.83479C47.6406 10.7497 30.1492 33.1405 28.6167 60.7385C26.2387 103.385 64.3394 135.774 106.72 119.111C149.101 102.448 137.581 47.1478 92.9281 46.9916C48.2748 46.8354 -19.2073 107.863 5.15388 156.082C31.893 209.039 120.988 181.076 155.654 153.738C171.56 141.189 148.996 119.215 133.248 131.66C112.269 148.219 76.2822 159.102 49.7544 152.02C3.99131 139.835 61.3273 83.2334 86.4811 78.7032C99.6922 76.3079 107.038 83.1293 95.1476 90.211C87.2209 94.9496 72.0018 91.6691 66.0832 85.5246C57.5753 76.7245 58.5265 57.9787 64.128 47.9289C78.2374 22.57 108.253 29.86 124.476 46.1584C138.797 60.5302 161.203 38.4518 146.882 24.08V24.028Z" fill="white"/>
</mask>
<g mask="url(#mask0_61_8723)">
<path opacity="0.71" d="M51.2869 127.547C77.174 127.547 98.1597 106.868 98.1597 81.359C98.1597 55.8503 77.174 35.1714 51.2869 35.1714C25.3997 35.1714 4.41406 55.8503 4.41406 81.359C4.41406 106.868 25.3997 127.547 51.2869 127.547Z" fill="url(#paint0_radial_61_8723)"/>
</g>
<path d="M106.723 119.111C147.413 103.073 137.584 47.1477 92.9304 46.9915C48.277 46.8353 -19.205 107.863 5.15614 156.082C31.8953 209.039 120.991 181.076 155.656 153.738C171.563 141.189 148.998 119.215 133.25 131.66C112.271 148.219 76.2844 159.102 49.7566 152.02C3.99357 139.835 61.3295 83.2334 86.4834 78.7031C99.6944 76.3079 107.04 83.1292 95.1498 90.211" fill="#7284FF"/>
</g>
<defs>
<radialGradient id="paint0_radial_61_8723" cx="0" cy="0" r="1" gradientUnits="userSpaceOnUse" gradientTransform="translate(51.2869 81.359) scale(46.8728 46.1876)">
<stop stop-color="#072374"/>
<stop offset="0.83" stop-color="#264CBB" stop-opacity="0.1"/>
<stop offset="1" stop-color="#466DE0" stop-opacity="0"/>
</radialGradient>
<clipPath id="clip0_61_8723">
<rect width="484" height="186" fill="white"/>
</clipPath>
</defs>
</svg>
